<?xml version="1.0" encoding="iso-8859-1"?>
<!-- Uploaded to: SVG Repo, www.svgrepo.com, Generator: SVG Repo Mixer Tools -->
<svg version="1.1" id="Layer_1" xmlns="http://www.w3.org/2000/svg" xmlns:xlink="http://www.w3.org/1999/xlink" 
	 viewBox="0 0 512 512" xml:space="preserve">
<g>
	<rect x="240" y="247.424" style="fill:#2C3E50;" width="32" height="201.872"/>
	<rect x="191.92" y="432.048" style="fill:#2C3E50;" width="128" height="32"/>
</g>
<path style="fill:#32BEA6;" d="M482.16,258.432H29.84c-16.416,0-29.84-13.44-29.84-29.856V77.808
	c0-16.416,13.424-29.856,29.84-29.856h452.304c16.432,0,29.856,13.44,29.856,29.856v150.784
	C512,244.992,498.576,258.432,482.16,258.432z"/>
<g>
	<path style="fill:#FFFFFF;" d="M59.472,116.8H99.12v12.016H74.192v14.816h23.28v11.936h-23.28v26.064h-14.72V116.8z"/>
	<path style="fill:#FFFFFF;" d="M167.168,148.544c0,21.264-12.896,34.16-31.84,34.16c-19.232,0-30.496-14.528-30.496-32.992
		c0-19.424,12.416-33.952,31.568-33.952C156.304,115.744,167.168,130.64,167.168,148.544z M120.336,149.408
		c0,12.688,5.952,21.648,15.76,21.648c9.904,0,15.6-9.44,15.6-22.032c0-11.648-5.6-21.648-15.68-21.648
		C126.096,127.376,120.336,136.8,120.336,149.408z"/>
	<path style="fill:#FFFFFF;" d="M174.448,117.664c4.72-0.768,11.728-1.344,19.536-1.344c9.632,0,16.352,1.44,20.976,5.088
		c3.84,3.072,5.968,7.616,5.968,13.568c0,8.288-5.872,13.952-11.456,15.968v0.304c4.528,1.824,7.024,6.16,8.656,12.112
		c2.032,7.312,4.048,15.776,5.296,18.288h-15.008c-1.04-1.824-2.592-7.12-4.512-15.104c-1.728-8.08-4.512-10.288-10.48-10.368
		h-4.416v25.488H174.48v-64H174.448z M188.992,145.552h5.76c7.312,0,11.648-3.664,11.648-9.328c0-5.952-4.032-8.944-10.768-9.024
		c-3.568,0-5.584,0.288-6.64,0.464L188.992,145.552L188.992,145.552z"/>
	<path style="fill:#FFFFFF;" d="M246.192,117.664c4.72-0.768,11.728-1.344,19.536-1.344c9.632,0,16.352,1.44,20.976,5.088
		c3.84,3.072,5.968,7.616,5.968,13.568c0,8.288-5.872,13.952-11.456,15.968v0.304c4.528,1.824,7.024,6.16,8.656,12.112
		c2.032,7.312,4.048,15.776,5.296,18.288H280.16c-1.04-1.824-2.592-7.12-4.512-15.104c-1.728-8.08-4.512-10.288-10.48-10.368h-4.416
		v25.488h-14.528v-64H246.192z M260.72,145.552h5.76c7.312,0,11.648-3.664,11.648-9.328c0-5.952-4.032-8.944-10.768-9.024
		c-3.568,0-5.584,0.288-6.64,0.464V145.552z"/>
	<path style="fill:#FFFFFF;" d="M339.456,154.208H315.6V169.6h26.656v12.032H300.88V116.8h40.016v12.016H315.6v13.472h23.856
		V154.208z"/>
	<path style="fill:#FFFFFF;" d="M349.888,181.632V116.8h17.12l13.472,23.744c3.84,6.832,7.696,14.912,10.576,22.224h0.304
		c-0.976-8.56-1.248-17.312-1.248-27.024V116.8h13.456v64.832h-15.376l-13.856-25.008c-3.84-6.928-8.08-15.28-11.248-22.896
		l-0.304,0.096c0.384,8.56,0.576,17.696,0.576,28.288v19.536h-13.472V181.632z"/>
	<path style="fill:#FFFFFF;" d="M426.432,129.12h-17.424V116.8h49.824v12.32h-17.68v52.512h-14.72V129.12z"/>
</g>
</svg>